# xmcd
#
# Track frame offsets:
#	150
#	21951
#	39249
#	54904
#	68975
#	100595
#	113694
#	129041
#	143853
#	156544
#	179410
#	195261
#	214646
#	229840
#	247926
#
# Disc length: 3472
#
# Revision: 1
# Processed by: cddbd v1.5.1PL0 Copyright (c) Steve Scherf et al.
# Submitted via: CDex 1.51
# Normalized: r0:TDELIM( - )
#
DISCID=bf0d8e0f
DTITLE=Various Artist - Songs From Landline - Vol 2
DYEAR=2004
DGENRE=Country
TTITLE0=Blackwood Hill - Beccy Cole
TTITLE1=Baby, Now That I've Found You - Alison Krauss
TTITLE2=Where Your Road Leads - Trisha Yearwood and Garth Brooks
TTITLE3=Raining On The Plains - Sara Stora with John Williamson
TTITLE4=And The Band Palyed Waltzing Matilda - Eric Bogle
TTITLE5=Call It Love - Adam Harvey
TTITLE6=Dancin' With Elvis - Gina Jeffreys
TTITLE7=Dream Out Loud - Troy Cassar-Daley
TTITLE8=Blue - Leann Rimes
TTITLE9=The Great Australian Dream - Graeme Connors
TTITLE10=What If (Radio Edit) - Reba McEntire
TTITLE11=Raining On The Rock - Warren H Williams and John Williamson
TTITLE12=Dunroamin' Station - Tania Kernaghan
TTITLE13=Way Out West - James Blundell and James Reyne
TTITLE14=Hillbilly Pickin' Ramblin' Girl - Catherine Britt
EXTD=YEAR: 2004
EXTT0=
EXTT1=
EXTT2=
EXTT3=
EXTT4=
EXTT5=
EXTT6=
EXTT7=
EXTT8=
EXTT9=
EXTT10=
EXTT11=
EXTT12=
EXTT13=
EXTT14=
PLAYORDER=
